<mxfile host="app.diagrams.net" modified="2023-05-22T09:38:54.272Z" agent="Mozilla/5.0 (Windows NT 10.0; Win64; x64) AppleWebKit/537.36 (KHTML, like Gecko) Chrome/111.0.0.0 Safari/537.36" etag="-LSBpRWVwGyfzcGpau2y" version="21.3.2" type="github">
  <diagram name="第 1 页" id="05bkpfjE3mHcKo47--gA">
    <mxGraphModel dx="794" dy="448" grid="0" gridSize="10" guides="1" tooltips="1" connect="1" arrows="1" fold="1" page="1" pageScale="1" pageWidth="1200" pageHeight="1920" math="0" shadow="0">
      <root>
        <mxCell id="0" />
        <mxCell id="1" parent="0" />
        <mxCell id="B5SEFdAos2f53_15SMrE-3" style="edgeStyle=orthogonalEdgeStyle;rounded=0;orthogonalLoop=1;jettySize=auto;html=1;entryX=0;entryY=0.5;entryDx=0;entryDy=0;curved=1;" edge="1" parent="1" source="B5SEFdAos2f53_15SMrE-1" target="B5SEFdAos2f53_15SMrE-2">
          <mxGeometry relative="1" as="geometry" />
        </mxCell>
        <mxCell id="B5SEFdAos2f53_15SMrE-1" value="" style="rounded=0;whiteSpace=wrap;html=1;fillColor=#E6D0DE;" vertex="1" parent="1">
          <mxGeometry x="147" y="318" width="120" height="60" as="geometry" />
        </mxCell>
        <mxCell id="B5SEFdAos2f53_15SMrE-2" value="Text" style="text;html=1;strokeColor=none;fillColor=none;align=center;verticalAlign=middle;whiteSpace=wrap;rounded=0;" vertex="1" parent="1">
          <mxGeometry x="387" y="333" width="60" height="30" as="geometry" />
        </mxCell>
      </root>
    </mxGraphModel>
  </diagram>
</mxfile>
